<svg width="24" height="24" viewBox="0 0 24 24" fill="none" xmlns="http://www.w3.org/2000/svg">
<g clip-path="url(#clip0_4_9)">
<mask id="mask0_4_9" style="mask-type:alpha" maskUnits="userSpaceOnUse" x="4" y="4" width="24" height="24">
<rect x="4" y="4" width="24" height="24" fill="#D9D9D9"/>
</mask>
<g mask="url(#mask0_4_9)">
<path d="M6.75 18.75C6.3375 18.75 5.98438 18.6031 5.69063 18.3094C5.39688 18.0156 5.25 17.6625 5.25 17.25V6.75C5.25 6.3375 5.39688 5.98438 5.69063 5.69063C5.98438 5.39688 6.3375 5.25 6.75 5.25H17.25C17.6625 5.25 18.0156 5.39688 18.3094 5.69063C18.6031 5.98438 18.75 6.3375 18.75 6.75V17.25C18.75 17.6625 18.6031 18.0156 18.3094 18.3094C18.0156 18.6031 17.6625 18.75 17.25 18.75H6.75ZM6.75 17.25H17.25V9H6.75V17.25Z" fill="white"/>
</g>
<ellipse cx="12" cy="-0.5" rx="28" ry="14.5" fill="url(#paint0_linear_4_9)"/>
</g>
<rect x="0.5" y="0.5" width="23" height="23" rx="3.5" stroke="white" stroke-opacity="0.5"/>
<defs>
<linearGradient id="paint0_linear_4_9" x1="12" y1="-15" x2="12" y2="14" gradientUnits="userSpaceOnUse">
<stop offset="0.5" stop-color="white" stop-opacity="0"/>
<stop offset="1" stop-color="#D9D9D9" stop-opacity="0.25"/>
</linearGradient>
<clipPath id="clip0_4_9">
<rect width="24" height="24" rx="4" fill="white"/>
</clipPath>
</defs>
</svg>
